<svg version="1.1" id="Layer_1" xmlns="http://www.w3.org/2000/svg" xmlns:xlink="http://www.w3.org/1999/xlink" x="0px" y="0px"
	 width="100%" viewBox="0 0 528 544" enable-background="new 0 0 528 544" xml:space="preserve">
<path fill="#000000" opacity="1.000000" stroke="none" 
	d="
M321.085327,309.965668 
	C318.939514,314.296387 316.949921,318.285919 314.323151,323.553070 
	C302.688446,308.939545 291.651672,295.076996 280.694672,281.314697 
	C282.545868,279.171387 284.386230,279.540894 285.931763,279.247711 
	C294.604706,277.602600 299.968079,271.825104 303.873779,264.586304 
	C314.174469,245.495117 329.924225,235.305252 351.670319,234.505814 
	C353.002289,234.456848 354.328369,234.186340 355.532837,235.151642 
	C356.425812,236.536072 355.402374,237.654236 354.861725,238.796890 
	C351.442749,246.023117 347.978790,253.228043 344.541840,260.445770 
	C343.677551,262.260742 342.728729,263.897430 344.966003,265.700348 
	C353.925568,272.920471 372.142578,270.696198 379.022858,261.410889 
	C387.085785,250.529556 382.990326,235.896210 370.168091,230.217285 
	C359.785461,225.618851 348.991547,226.258713 338.289978,228.614990 
	C327.355042,231.022659 317.492218,235.793152 309.736267,244.116364 
	C307.300201,246.730606 305.184418,246.747757 302.330994,244.985901 
	C288.758392,236.605362 281.517029,224.330215 279.650177,208.670349 
	C279.436523,206.877808 279.244568,205.082657 279.030792,203.184036 
	C268.479736,202.094650 260.827118,207.568253 254.041611,213.970245 
	C242.413589,224.941086 231.344986,236.503708 219.989258,247.765182 
	C217.638260,250.096664 216.858826,252.089981 219.414413,254.971939 
	C235.320847,272.909790 251.072906,290.981323 268.814240,307.187439 
	C275.478760,313.275238 282.930786,317.701538 291.909790,319.318481 
	C292.879822,319.493195 293.828827,319.832703 294.751038,320.190063 
	C294.974396,320.276672 295.052429,320.738373 295.244690,321.122223 
	C294.756378,323.633057 292.666351,323.254761 290.943085,323.263855 
	C283.445129,323.303345 275.946686,323.255188 268.448425,323.236084 
	C263.532257,323.223541 260.880768,321.203644 259.297607,316.067322 
	C252.167435,292.934448 236.647873,276.974701 215.271439,266.248688 
	C205.307083,261.248871 195.152573,256.625885 185.532211,250.928406 
	C181.490952,248.535034 179.700821,245.697586 179.894409,240.855499 
	C180.240158,232.206924 180.146454,223.521759 179.798630,214.869507 
	C179.399704,204.946518 178.684937,204.408859 169.159592,202.589783 
	C167.610229,202.293900 165.726196,202.636551 164.671051,200.810516 
	C165.000885,198.520447 166.789581,198.598862 168.421555,198.632339 
	C181.569092,198.902023 194.721298,199.558487 207.839294,197.998337 
	C208.003860,197.978775 208.172592,197.983093 208.338821,197.990021 
	C210.323242,198.072586 213.002365,197.803040 213.207947,200.294662 
	C213.422836,202.898773 210.694885,203.052673 208.764374,203.106979 
	C204.069839,203.239059 201.470383,205.707733 201.398407,210.178238 
	C201.194565,222.838074 201.283356,235.502762 201.292007,248.165512 
	C201.292419,248.773010 201.628738,249.380295 201.747650,249.781815 
	C202.903030,250.448563 203.751907,250.034088 204.274231,249.468063 
	C215.903183,236.866241 228.642853,225.300781 239.407120,211.894424 
	C242.390320,208.179047 245.594788,204.375244 238.981720,201.193039 
	C240.241058,198.095398 242.576218,198.026169 244.617233,198.332275 
	C256.439514,200.105362 268.199310,197.956619 279.987701,197.899338 
	C283.432007,197.882614 286.893402,198.105392 289.556976,200.014664 
	C299.339600,207.026810 310.328949,206.380646 321.313232,205.391846 
	C330.246582,204.587692 339.095276,202.610428 348.033386,202.141464 
	C364.798523,201.261810 380.759918,203.933380 392.913788,217.005203 
	C404.827179,229.818375 407.506287,244.759537 401.232697,260.997223 
	C395.397766,276.099670 380.389374,286.005066 364.269318,286.362976 
	C355.578430,286.555908 347.429047,284.519440 339.625977,281.001495 
	C336.751892,279.705719 335.133423,279.909241 333.754150,282.943817 
	C329.689911,291.885834 325.426819,300.737457 321.085327,309.965668 
z"/>
<path fill="#000000" opacity="1.000000" stroke="none" 
	d="
M247.289978,299.798126 
	C252.096146,307.703278 254.922775,316.055450 257.709869,324.393799 
	C266.178925,326.236725 266.678711,326.329681 266.169800,335.194397 
	C265.693024,343.499329 266.437164,351.751862 266.194153,360.025513 
	C266.099731,363.239105 264.725342,365.666199 261.373840,365.990845 
	C258.504120,366.268799 256.864990,364.422333 256.069885,361.687134 
	C255.396118,359.369232 257.106140,355.921021 254.437317,354.844543 
	C251.847458,353.799866 248.623611,354.326935 245.848465,354.173157 
	C244.505737,356.606445 245.287231,358.860779 244.790329,360.943176 
	C244.060928,364.000000 242.531723,366.348083 239.058151,365.972290 
	C235.872574,365.627655 234.736511,363.347443 234.755539,360.260895 
	C234.812759,350.977783 234.797226,341.694092 234.776962,332.410706 
	C234.769318,328.909882 234.937668,325.153564 239.399277,324.925934 
	C243.748093,324.704041 244.760269,328.328583 244.901672,331.829620 
	C245.036392,335.164337 245.828934,337.453949 249.771713,336.897339 
	C251.889893,336.598267 254.970947,338.064880 255.606888,334.729797 
	C256.210083,331.566559 256.853668,328.243286 253.375122,325.713562 
	C245.511444,319.994751 236.785187,316.674011 227.222794,315.308289 
	C218.276276,314.030548 209.270676,314.121002 200.288727,314.331329 
	C177.890915,314.855743 162.619568,304.247772 153.143433,284.526428 
	C151.605865,281.326477 149.262650,278.339233 149.709335,274.022064 
	C157.588120,282.565643 164.537964,292.031067 175.622131,296.828674 
	C186.762009,301.650391 198.522446,302.184723 210.424164,302.353760 
	C205.486099,301.141479 200.600555,299.621460 195.601212,298.768127 
	C168.111343,294.075775 152.727814,277.090759 146.521454,250.744308 
	C145.711502,247.305984 144.014969,243.874283 145.269363,240.123611 
	C147.436630,240.163803 147.719406,241.720932 148.280197,243.092560 
	C156.676392,263.628601 170.950684,277.644653 192.817032,283.271271 
	C199.567749,285.008362 206.284027,286.879333 213.443436,287.773956 
	C209.084106,285.886688 204.723129,284.003204 200.365768,282.111389 
	C187.688187,276.607239 174.803436,271.494995 164.398682,261.915466 
	C153.022552,251.441589 146.802124,238.486221 144.502197,223.237274 
	C143.256409,214.977463 142.709457,206.727921 142.306686,198.428680 
	C142.208313,196.401428 142.110229,194.442825 143.856400,192.873444 
	C146.149551,193.330246 145.789688,195.309631 146.024353,196.788193 
	C150.675568,226.094574 166.129395,247.269958 193.078323,260.061676 
	C203.750244,265.127258 214.545212,270.011169 224.465027,276.540588 
	C233.646027,282.583679 241.167557,290.244781 247.289978,299.798126 
z"/>
<path fill="#000000" opacity="1.000000" stroke="none" 
	d="
M311.275360,366.140869 
	C308.049774,365.413513 305.507996,364.424377 302.284882,365.717072 
	C298.863434,367.089264 296.269745,364.520874 296.169800,361.128937 
	C295.866791,350.844421 295.914825,340.544739 296.068726,330.254608 
	C296.112518,327.323395 297.891235,325.192780 301.127838,325.181366 
	C304.373901,325.169891 305.820892,327.299072 306.221436,330.237671 
	C306.399597,331.544647 306.387970,332.895233 306.306244,334.216339 
	C306.127014,337.114471 307.019623,338.281494 310.296997,338.135925 
	C319.093628,337.745178 324.773682,342.415527 325.247101,349.877075 
	C325.903229,360.217377 321.836029,365.105530 311.275360,366.140869 
M313.743134,355.175903 
	C315.619934,352.511810 315.120117,350.131409 312.689789,348.190979 
	C310.933258,346.788635 309.204803,347.436371 307.809448,348.900024 
	C306.140808,350.650269 305.693909,352.783020 307.083923,354.805756 
	C308.688721,357.140991 310.908112,357.145874 313.743134,355.175903 
z"/>
<path fill="#000000" opacity="1.000000" stroke="none" 
	d="
M77.244095,438.802307 
	C79.061653,442.387573 79.061653,442.387573 72.682114,444.569824 
	C75.616417,445.832428 79.342728,444.237183 80.838921,447.624329 
	C88.548355,442.724487 84.110786,437.633881 81.072365,432.731537 
	C85.234932,430.318939 87.658203,432.570526 90.140617,435.434784 
	C92.235558,431.677612 95.376228,431.518158 98.840118,431.723480 
	C102.648506,431.949188 106.494759,431.540527 110.302490,431.771423 
	C114.287949,432.013031 116.912491,434.321991 117.095192,438.378387 
	C117.271027,442.282318 114.781036,444.545868 111.094559,445.153229 
	C108.690445,445.549347 106.580650,445.648254 106.017448,448.756104 
	C105.676399,450.638092 103.739571,450.345337 102.261696,450.202484 
	C100.298347,450.012695 99.955017,448.492340 99.933876,446.937531 
	C99.877716,442.806976 99.914803,438.675140 99.914803,434.303223 
	C94.426559,437.184937 94.419388,437.303650 98.548286,449.270447 
	C94.358498,450.915863 94.358498,450.915863 89.959564,446.805603 
	C86.025520,452.877869 79.882965,450.060730 74.602425,450.239502 
	C64.560547,450.579529 64.881165,451.761719 64.913887,440.711670 
	C64.917336,439.547485 65.003731,438.374512 64.893723,437.220673 
	C64.477287,432.852692 66.435867,431.117615 70.735031,431.632660 
	C72.374954,431.829163 74.059555,431.619202 75.720078,431.686401 
	C77.490929,431.757996 79.788261,431.382294 79.722923,434.127014 
	C79.667351,436.461426 77.624237,436.190887 75.981964,436.376740 
	C74.622414,436.530579 72.989433,435.675201 71.868675,437.366943 
	C73.232712,439.152313 75.296982,438.093262 77.244095,438.802307 
M110.340729,439.153229 
	C110.591965,437.144958 109.588066,436.314789 107.739395,436.722473 
	C106.630394,436.967010 106.168930,438.102081 106.533607,439.101379 
	C107.279419,441.145111 108.628761,440.807648 110.340729,439.153229 
z"/>
<path fill="#000000" opacity="1.000000" stroke="none" 
	d="
M274.509338,338.329224 
	C277.594391,339.660034 278.152466,342.033813 278.213104,344.635254 
	C278.271179,347.126434 278.241699,349.619537 278.261993,352.111725 
	C278.279083,354.206696 278.465759,356.479706 281.203369,356.365631 
	C283.676758,356.262543 284.311798,354.007568 284.403503,351.979828 
	C284.545288,348.845459 283.878967,345.717804 284.495056,342.547028 
	C285.015106,339.870636 286.441010,338.332794 289.093140,338.135529 
	C292.047943,337.915802 294.097198,339.635620 294.436310,342.311279 
	C295.210144,348.417511 295.460632,354.623596 292.425995,360.305725 
	C289.926239,364.986389 285.327850,366.414124 280.571869,366.157227 
	C275.152740,365.864471 270.658875,363.402069 268.822937,357.714478 
	C267.200256,352.687592 267.503571,347.509583 268.013702,342.398010 
	C268.355316,338.974792 270.776611,337.698639 274.509338,338.329224 
z"/>
<path fill="#000000" opacity="1.000000" stroke="none" 
	d="
M238.976883,448.947693 
	C234.661560,451.228149 234.002640,451.100739 228.870575,446.796967 
	C226.291656,451.723633 221.636765,450.223846 217.499954,450.323883 
	C204.605789,450.635712 204.597321,450.597778 204.510498,437.727295 
	C204.498291,435.916840 204.329330,434.066437 205.600708,431.738159 
	C213.192871,432.640991 221.467178,429.378845 229.712219,434.573639 
	C231.543243,433.223907 233.766739,430.045807 238.090363,432.822906 
	C232.579803,438.199707 232.614243,443.593048 238.748993,448.798065 
	C238.999390,448.986206 238.976883,448.947693 238.976883,448.947693 
M223.531479,443.803528 
	C226.586594,439.152008 222.357239,437.093018 220.023544,433.606689 
	C218.345306,438.358795 213.600021,434.862152 211.062180,437.507355 
	C213.128708,439.883575 218.274826,436.235687 218.075470,441.238190 
	C217.904526,445.527863 213.183563,442.182587 211.202896,444.568420 
	C213.796494,445.012482 216.532761,444.829987 218.494827,445.974640 
	C221.207413,447.557129 221.966415,445.933960 223.531479,443.803528 
z"/>
<path fill="#000000" opacity="1.000000" stroke="none" 
	d="
M436.320068,435.956665 
	C436.332703,437.573303 436.311676,438.738800 436.323761,439.903961 
	C436.420685,449.266571 433.920929,451.304779 424.548981,449.491425 
	C424.065430,449.397827 423.435150,449.024017 423.128937,449.207520 
	C418.054932,452.247559 415.576233,448.599915 412.913025,445.341003 
	C412.508820,444.846375 411.950134,444.477966 411.333740,443.937958 
	C410.963409,444.458679 410.541962,444.793976 410.473083,445.190521 
	C410.078430,447.462280 411.037781,450.721680 406.897491,450.232635 
	C403.063538,449.779785 404.140564,446.689178 404.082367,444.390656 
	C404.006744,441.403381 404.227173,438.409393 404.285919,435.417603 
	C404.312134,434.082550 404.113922,432.567383 405.656555,431.997650 
	C407.276428,431.399384 409.000000,431.478851 410.315765,432.796570 
	C411.914398,434.397614 413.394714,436.116791 414.910156,437.767395 
	C416.317230,436.641144 415.924316,435.361176 416.133240,434.282257 
	C416.534424,432.210358 417.794312,431.595062 419.732269,431.778595 
	C421.646179,431.959900 422.247345,433.193542 422.263458,434.856537 
	C422.297119,438.337524 422.273651,441.819031 422.273651,445.938538 
	C424.563568,444.770233 426.568939,443.922241 428.382782,445.678772 
	C431.005768,439.882812 430.574768,438.318420 425.921692,436.190186 
	C424.124786,435.368347 423.464325,433.853882 424.762207,432.726929 
	C427.242798,430.573059 430.487244,431.888092 433.402496,431.768127 
	C435.928253,431.664154 436.260681,433.536469 436.320068,435.956665 
z"/>
<path fill="#000000" opacity="1.000000" stroke="none" 
	d="
M336.118896,436.281311 
	C336.119019,439.897583 336.149841,443.053223 336.060150,446.205475 
	C336.018524,447.667999 336.115662,449.414429 334.388885,450.034393 
	C332.527588,450.702698 330.803406,450.220062 329.454407,448.648193 
	C328.170807,447.152618 326.842651,445.695282 325.562286,444.252869 
	C325.073669,444.520233 324.654419,444.604858 324.580872,444.812195 
	C323.791687,447.035492 324.937988,450.802216 320.571259,450.196899 
	C316.802856,449.674561 318.034790,446.509430 317.896515,444.245209 
	C317.724792,441.433197 317.814819,438.602478 317.860718,435.781006 
	C317.884827,434.298218 317.802917,432.575958 319.551910,431.985229 
	C321.395874,431.362335 323.091736,431.807831 324.538513,433.299591 
	C325.985321,434.791351 326.791138,436.986816 329.109131,437.693176 
	C330.649628,435.856018 328.510742,431.774109 332.837067,431.764801 
	C335.706543,431.758636 335.844757,433.800781 336.118896,436.281311 
z"/>
<path fill="#000000" opacity="1.000000" stroke="none" 
	d="
M181.945862,431.662354 
	C183.574951,431.702301 184.741608,431.690582 185.897736,431.795319 
	C187.210724,431.914307 188.063919,432.558960 188.025116,434.021362 
	C187.987778,435.428497 187.189987,436.022217 185.876129,436.287506 
	C183.993698,436.667664 181.900208,435.690857 180.000900,437.225769 
	C180.915909,439.053406 182.640076,438.221466 183.914749,438.475891 
	C185.347198,438.761780 187.071121,438.386993 187.158325,440.621490 
	C187.249390,442.954102 185.673981,443.265930 183.871384,443.369385 
	C182.622894,443.441040 181.239319,443.099274 179.626404,444.787750 
	C183.712204,444.996246 187.074661,446.058136 190.638306,445.026367 
	C192.654648,444.442596 194.922012,444.358246 195.463837,446.984985 
	C196.028809,449.723846 195.227600,452.638550 192.689606,453.859528 
	C189.629654,455.331604 190.222916,451.812622 189.322357,450.225098 
	C184.291214,450.225098 179.352890,450.225098 174.184830,450.225098 
	C172.929840,446.913086 173.359879,443.549713 173.146042,440.328674 
	C172.609985,432.254456 173.270264,431.700500 181.945862,431.662354 
z"/>
<path fill="#000000" opacity="1.000000" stroke="none" 
	d="
M281.144318,447.289886 
	C280.661072,449.845062 279.264008,450.493652 277.104401,450.301422 
	C274.760834,450.092773 274.646484,448.409576 274.542480,446.747620 
	C274.418762,444.771057 274.436279,442.784729 274.420685,440.802429 
	C274.348877,431.666412 276.735626,429.779785 285.720001,431.855927 
	C290.079620,432.863312 293.021790,437.209442 290.844208,440.829071 
	C288.854889,444.135773 289.491272,446.546234 291.428406,449.510620 
	C288.391571,450.794952 286.135620,450.758209 284.176086,448.206909 
	C283.527496,447.362518 282.969025,445.536194 281.144318,447.289886 
z"/>
<path fill="#000000" opacity="1.000000" stroke="none" 
	d="
M357.711853,449.914490 
	C355.412781,444.381256 356.923798,438.947510 356.929932,433.560059 
	C356.931549,432.166412 358.288757,431.779541 359.507385,431.760651 
	C362.494568,431.714233 365.483704,431.705109 368.470520,431.762115 
	C369.905243,431.789429 371.130402,432.242737 371.074585,434.045288 
	C371.020966,435.778076 369.852478,436.188934 368.401825,436.329956 
	C366.842041,436.481537 365.122162,435.966553 363.562012,437.312317 
	C365.193024,439.867096 370.171356,436.439606 370.079254,440.928864 
	C370.002350,444.677704 366.116119,442.852509 363.863678,444.537140 
	C367.222260,445.125549 370.156616,446.051788 373.215851,445.250153 
	C375.876495,444.552979 378.754730,444.230804 378.907166,447.697357 
	C379.032013,450.536835 378.507660,454.140594 374.114746,454.112732 
	C372.676575,452.583954 374.197571,450.572021 372.697662,449.206573 
	C368.024445,451.224365 363.045624,450.326599 357.711853,449.914490 
z"/>
<path fill="#000000" opacity="1.000000" stroke="none" 
	d="
M150.072723,448.353699 
	C148.005936,449.597443 146.200577,450.314758 144.126907,450.394226 
	C138.172134,450.622314 133.515015,447.137146 133.007965,441.970306 
	C132.528610,437.085693 136.184067,432.566345 141.266891,431.759613 
	C147.349136,430.794220 152.195755,433.779968 153.538483,439.274841 
	C154.431900,442.931030 153.140381,445.778687 150.072723,448.353699 
M139.759338,439.294128 
	C138.779755,442.157501 139.883438,444.204834 142.494720,445.300507 
	C144.319290,446.066071 145.759964,444.985321 146.462326,443.319366 
	C147.344757,441.226257 147.402557,439.000824 145.514023,437.404785 
	C143.305542,435.538300 141.574219,436.799103 139.759338,439.294128 
z"/>
<path fill="#000000" opacity="1.000000" stroke="none" 
	d="
M171.869751,437.340820 
	C171.882706,438.533417 171.968140,439.409668 171.695999,440.155396 
	C169.904434,445.064972 169.879272,445.055786 171.143478,449.686951 
	C166.876328,452.101624 164.966568,448.379578 162.693771,446.269501 
	C161.377808,446.567108 161.375168,447.492004 161.166412,448.251190 
	C160.577820,450.391876 158.920959,450.420044 157.201752,450.256927 
	C155.251862,450.071899 154.887741,448.621124 154.836914,447.041962 
	C154.767563,444.888123 154.460251,442.674774 154.832291,440.589935 
	C155.361542,437.624207 152.789963,433.479401 157.201981,431.895111 
	C162.995285,429.814789 168.849075,432.076904 171.869751,437.340820 
M163.965256,440.407227 
	C165.609802,439.464874 166.136230,438.313751 164.408936,437.001343 
	C163.524185,436.329193 162.375534,436.377686 161.815689,437.383057 
	C160.925797,438.980988 161.211227,440.267792 163.965256,440.407227 
z"/>
<path fill="#000000" opacity="1.000000" stroke="none" 
	d="
M454.244995,433.487030 
	C458.277527,437.020355 459.234344,441.033234 456.901764,445.384033 
	C454.558167,449.755524 450.423340,450.894775 445.774567,450.221039 
	C440.940918,449.520447 437.423370,445.510040 437.487610,441.040924 
	C437.557281,436.193817 441.159149,432.331390 446.223999,431.738342 
	C448.937714,431.420654 451.539124,431.801788 454.244995,433.487030 
M451.657593,441.366150 
	C451.641632,438.720978 450.620026,436.688965 447.764130,436.575470 
	C445.677979,436.492554 444.490326,438.009827 444.191620,440.036499 
	C443.844849,442.389374 444.442871,444.567719 446.861694,445.296143 
	C449.415344,446.065216 450.846283,444.392761 451.657593,441.366150 
z"/>
<path fill="#000000" opacity="1.000000" stroke="none" 
	d="
M257.780670,436.190430 
	C257.682434,433.098297 258.727478,431.612274 261.557434,431.684021 
	C264.054749,431.747314 266.555939,431.643951 269.054199,431.686829 
	C270.701447,431.715057 272.653534,431.536407 272.762054,433.947479 
	C272.871765,436.384888 270.959778,436.249695 269.285828,436.463135 
	C267.734894,436.660858 265.961578,435.720337 264.561920,437.297760 
	C265.465149,439.293152 267.144196,438.263153 268.471191,438.344421 
	C270.016357,438.439056 271.640381,438.363739 271.711914,440.505249 
	C271.772949,442.332367 270.753357,443.216431 268.941986,443.305847 
	C267.820465,443.361176 266.704529,443.530121 264.841217,443.726654 
	C266.545685,445.431366 268.108917,444.933990 269.425262,445.169647 
	C271.073822,445.464722 273.002655,445.547607 272.989319,447.823029 
	C272.973480,450.522522 270.798828,450.312195 268.987946,450.346924 
	C266.489990,450.394836 263.989777,450.309601 261.491180,450.339020 
	C258.975098,450.368591 257.852112,449.092224 257.841095,446.661346 
	C257.825989,443.329559 257.797455,439.997833 257.780670,436.190430 
z"/>
<path fill="#000000" opacity="1.000000" stroke="none" 
	d="
M392.092407,431.681824 
	C394.558990,431.676178 396.556091,431.619781 398.547791,431.699066 
	C400.139893,431.762421 402.144928,431.402893 402.237000,433.907806 
	C402.327484,436.369293 400.438110,436.199127 398.773224,436.407898 
	C397.260925,436.597565 395.473694,435.652222 394.154449,437.423126 
	C396.075104,439.560059 401.043274,436.272766 401.067780,440.989624 
	C401.087341,444.752594 397.041168,442.749603 394.855591,444.549805 
	C397.033417,444.945740 398.880402,445.259430 400.717529,445.622894 
	C402.039795,445.884521 402.720947,446.724762 402.671844,448.085693 
	C402.620972,449.495087 401.779694,450.247742 400.453522,450.262054 
	C396.967377,450.299622 393.476044,450.328461 389.994965,450.175354 
	C388.047363,450.089722 387.741180,448.480194 387.724365,446.907257 
	C387.683563,443.084686 387.753540,439.260162 387.664062,435.439148 
	C387.598389,432.634338 388.952332,431.515411 392.092407,431.681824 
z"/>
<path fill="#000000" opacity="1.000000" stroke="none" 
	d="
M315.108398,440.619720 
	C314.920197,443.004944 313.422028,443.144318 311.870972,443.317139 
	C310.624359,443.456085 309.164368,442.945038 308.049652,444.598114 
	C309.674652,446.318939 311.741882,445.225586 313.522186,445.413147 
	C315.121918,445.581635 316.581085,445.784454 316.548004,447.864105 
	C316.516632,449.838287 315.236542,450.349091 313.543060,450.333740 
	C313.210785,450.330750 312.878235,450.359192 312.546021,450.355377 
	C300.030304,450.211639 301.168243,452.153290 301.517181,439.953979 
	C301.591766,437.345978 300.847168,434.673157 302.385315,431.715942 
	C305.841797,431.715942 309.468597,431.689880 313.094727,431.727936 
	C314.690826,431.744690 316.187469,432.074799 316.082184,434.165070 
	C315.994202,435.910553 314.681580,436.174408 313.273712,436.321686 
	C311.549927,436.502075 309.683014,435.944977 307.890656,437.111664 
	C309.747070,439.938538 313.866913,436.741272 315.108398,440.619720 
z"/>
<path fill="#000000" opacity="1.000000" stroke="none" 
	d="
M239.013031,449.003723 
	C239.179810,444.394226 239.342560,439.767456 239.479233,435.139954 
	C239.513000,433.997375 239.282639,432.813629 240.477264,432.033783 
	C243.007202,430.382172 253.081055,432.078278 255.000122,434.497803 
	C258.313812,438.675751 255.922562,444.105194 250.085938,445.164734 
	C247.688736,445.599884 245.924622,445.764984 245.020279,448.732178 
	C244.208130,451.396881 241.615631,450.491211 239.287201,449.216461 
	C238.976883,448.947693 238.999390,448.986206 239.013031,449.003723 
M249.638657,438.503662 
	C249.272888,436.646027 248.126770,435.982239 246.496918,436.863953 
	C245.354843,437.481781 245.122894,438.831940 246.018982,439.768616 
	C247.316803,441.125183 248.605972,440.719452 249.638657,438.503662 
z"/>
<path fill="#000000" opacity="1.000000" stroke="none" 
	d="
M353.372375,448.866333 
	C351.418335,449.996857 349.689606,450.393982 347.802032,450.399597 
	C343.208984,450.413239 339.660828,448.609436 337.773590,444.372711 
	C336.190887,440.819702 337.109985,437.450531 339.765320,434.739532 
	C343.161621,431.272003 347.353668,430.892120 351.743011,432.431885 
	C353.217499,432.949127 355.331635,433.642426 354.415710,435.821960 
	C353.623413,437.707275 351.932159,438.333160 349.875641,437.130920 
	C347.596313,435.798340 345.730225,436.494965 344.338867,438.628510 
	C343.061768,440.586853 343.427704,442.390137 344.897980,444.092407 
	C346.510193,445.959076 348.310516,445.795807 350.263580,444.706451 
	C351.613403,443.953522 352.800385,444.308594 353.874054,445.348206 
	C355.102203,446.537476 355.076904,447.619873 353.372375,448.866333 
z"/>
<path fill="#000000" opacity="1.000000" stroke="none" 
	d="
M463.295959,443.029480 
	C461.800720,439.142883 458.754974,436.411926 458.225159,432.479584 
	C463.184723,429.855499 464.646729,434.188110 467.130707,436.970276 
	C469.682800,434.807007 470.631805,429.581970 475.634766,432.465027 
	C475.652588,435.480194 473.378143,437.501373 472.158630,439.974365 
	C471.121857,442.076691 470.058441,444.094055 470.062836,446.536591 
	C470.066284,448.460449 469.725464,450.220734 467.135193,450.273224 
	C464.338989,450.329834 463.900482,448.548248 463.796387,446.360535 
	C463.749237,445.368744 463.571014,444.383179 463.295959,443.029480 
z"/>
<path fill="#000000" opacity="1.000000" stroke="none" 
	d="
M118.489212,437.377197 
	C118.823532,434.647552 117.920860,431.494507 122.004265,431.786926 
	C125.569984,432.042267 124.748100,434.904205 124.979645,437.061432 
	C125.120987,438.378265 125.105469,439.723145 125.037033,441.049042 
	C124.885574,443.983429 125.675468,445.907043 129.158997,445.728821 
	C130.720490,445.648895 132.876678,445.424469 132.860199,447.891388 
	C132.842331,450.562469 130.576645,450.381073 128.804047,450.364807 
	C116.657471,450.253448 119.091743,451.945099 118.489212,437.377197 
z"/>
<path fill="#000000" opacity="1.000000" stroke="none" 
	d="
M299.164886,439.082611 
	C299.128143,442.220093 299.152100,444.877930 299.040894,447.530090 
	C298.953400,449.617157 297.634155,450.335114 295.676514,450.281219 
	C293.822998,450.230255 292.920654,449.263611 292.891754,447.498810 
	C292.829346,443.681213 292.787750,439.861969 292.829803,436.044434 
	C292.852051,434.023651 292.892395,431.912231 295.784241,431.790436 
	C298.961517,431.656616 299.125366,433.824005 299.164551,436.109772 
	C299.178802,436.939789 299.167175,437.770264 299.164886,439.082611 
z"/>
</svg>